<?xml version="1.0" encoding="utf-8"?>
<!-- Generator: Adobe Illustrator 21.1.0, SVG Export Plug-In . SVG Version: 6.00 Build 0)  -->
<svg version="1.1" id="Camada_1" xmlns="http://www.w3.org/2000/svg" xmlns:xlink="http://www.w3.org/1999/xlink" x="0px" y="0px"
	 viewBox="0 0 1366 192" style="enable-background:new 0 0 1366 192;" xml:space="preserve">
<style type="text/css">
	.st0{fill:#FFFFFF;}
</style>
<g>
	<path class="st0" d="M673.9,117.1c13.4,21,27,42.1,40.7,63.5c-0.7,0-1.1,0-1.5,0c-3.1,0-6.2-0.2-9.3,0.1c-2.2,0.2-3.4-0.6-4.5-2.4
		c-12.5-19.6-25-39.1-37.6-58.6c-0.3-0.5-1.1-0.9-1.6-0.9c-17,0-34,0-51,0c-0.3,0-0.6,0.1-1.1,0.1c0,20.6,0,41.1,0,61.7
		c-4,0-7.8,0-11.7,0c0-54.7,0-109.4,0-164.2c0.6,0,1.2,0,1.7,0c102.6,0,205.2,0,307.8,0c9,0,17.2,2.9,24.7,7.9
		c14.2,9.5,22.8,22.9,25,39.7c2.4,17.9-2.8,33.6-15.8,46.4c-3.3,3.3-7.2,5.8-11.5,7.7c-0.5,0.2-1,0.5-1.6,0.8
		c12.5,20.5,24.9,41,37.4,61.7c-0.7,0-1.1,0.1-1.5,0.1c-11,0-22,0-33.1,0c-1,0-1.6-0.3-2.1-1.2c-10.6-17.5-21.3-34.9-31.9-52.4
		c-0.6-1-1.3-1.4-2.5-1.4c-9.3,0.1-18.6,0-27.9,0c-0.5,0-1,0-1.7,0c0,18.3,0,36.5,0,54.9c-10.8,0-21.4,0-32.2,0
		c0-45.4,0-90.7,0-136.2c-15.5,0-30.9,0-46.5,0c0,45.4,0,90.7,0,136.2c-10.7,0-21.2,0-31.8,0c0-45.4,0-90.7,0-136.2
		c-15.3,0-30.5,0-45.8,0c0.7,1.7,1.5,3.4,2.1,5.1c4.8,13,4.3,25.9-0.8,38.7c-4.4,11.1-11.8,19.6-22.6,24.8
		C681.8,114.6,677.9,115.7,673.9,117.1z M607.8,26.9c0,0.7,0,1.3,0,1.8c0,25.7,0,51.4,0,77.1c0,1.9,0,1.9,1.9,1.9
		c18.5,0,36.9,0,55.4,0c1.4,0,2.9-0.1,4.3-0.3c8.5-1.1,15.4-5.3,20.8-11.8c7.9-9.3,10.9-20.3,9.9-32.4c-1-11.7-6.4-21.4-15.5-28.8
		c-6.3-5.1-13.5-7.7-21.7-7.6c-17.7,0.1-35.4,0-53.1,0C609.2,26.9,608.6,26.9,607.8,26.9z M863.1,44.2c0,0.5-0.1,0.8-0.1,1.2
		c0,16.9,0,33.8,0,50.7c0,1.2,0.5,1.3,1.5,1.3c12.7,0,25.4,0,38.1,0c5.1,0,9.4-1.9,13-5.4c5-4.9,7.3-11,8-17.9
		c0.9-9.4-1.6-17.7-8.6-24.3c-3.8-3.6-8.3-5.6-13.7-5.6c-12.1,0-24.3,0-36.4,0C864.4,44.2,863.8,44.2,863.1,44.2z"/>
	<path class="st0" d="M1354.4,34.1c-4.7,8.5-9.2,17-13.8,25.3c-2.8-1.9-5.4-3.8-8.2-5.4c-9.4-5.3-19.3-9-30.1-10
		c-6.8-0.7-13.6-0.4-20.1,2.1c-9.2,3.6-12.1,12-10.2,20.1c1,4.3,4.1,6.9,7.7,9.1c4.8,2.9,10.1,4.5,15.5,6c9.8,2.8,19.6,5.4,29.3,8.4
		c7.3,2.2,14.3,5.3,20.4,9.9c9.4,7.1,14.4,16.5,15.1,28.2c0.5,7.1,0.1,14.2-2.2,21c-3.6,10.7-10.7,18.5-20.6,23.8
		c-8.4,4.5-17.5,6.5-26.9,7.4c-3.7,0.3-7.5,0.5-11.3,0.5c-42.1,0-84.1,0-126.2,0c-0.6,0-1.2,0-1.9,0c0-54.8,0-109.4,0-164.2
		c10.5,0,21,0,31.8,0c0,0.7,0,1.4,0,2c0,44,0,88,0,131.9c0,0.5-0.1,1,0,1.5c0.1,0.3,0.4,0.6,0.8,0.7c0.4,0.1,0.8,0,1.2,0
		c32.1,0,64.2,0,96.2,0c5.3,0,10.5-0.5,15.6-2.4c11-4.1,11.9-15.2,8.5-21.4c-2-3.5-5.1-5.8-8.6-7.7c-5.7-3.1-11.9-4.9-18.1-6.7
		c-8.9-2.6-17.9-5.2-26.7-8.1c-7-2.3-13.7-5.5-19.5-10.2c-7.6-6.2-11.8-14.2-12.7-24c-0.7-8.4,0.1-16.7,3.2-24.6
		c4.1-10.3,11.3-17.9,21-23.3c8.2-4.5,17.1-6.9,26.4-7.7c17.2-1.5,33.6,1.4,49.2,9C1344.3,28.1,1349.4,30.7,1354.4,34.1z"/>
	<path class="st0" d="M1163.4,180.5c-11,0-21.9,0-32.9,0c-1.1-3-2.3-6-3.4-9c-3.8-10.3-7.7-20.7-11.5-31c-0.4-1-1-0.9-1.7-0.9
		c-13.9,0-27.7,0-41.6,0c-4.4,0-8.8,0-13.2,0c-0.9,0-1.3,0.2-1.6,1.1c-4.7,12.9-9.4,25.8-14.2,38.8c-0.2,0.7-0.4,1.2-1.4,1.2
		c-10.5,0-21,0-31.5,0c-0.1,0-0.2,0-0.4-0.1c0.9-2.4,1.8-4.7,2.7-7c6.6-17.4,13.3-34.7,19.9-52.1c7.9-20.8,15.9-41.6,23.8-62.5
		c5.3-13.8,10.5-27.5,15.7-41.3c0.4-1,0.9-1.4,2-1.4c8.6,0,17.1,0,25.7,0c0.9,0,1.4,0.2,1.7,1.1c10.6,28,21.3,56,31.9,83.9
		c9.8,25.9,19.7,51.8,29.5,77.7C1163.1,179.5,1163.2,180,1163.4,180.5z M1086.9,52.8c-7.9,21.7-15.7,42.9-23.5,64.3
		c15.5,0,30.7,0,46.1,0C1101.9,95.6,1094.4,74.4,1086.9,52.8z"/>
	<path class="st0" d="M323.6,39.2c0,47.1,0,94.1,0,141.2c-4,0-7.9,0-11.9,0c0-54.7,0-109.3,0-164.1c0.3,0,0.7-0.1,1-0.1
		c3.3,0,6.6,0,9.9,0c0.5,0,1.2,0.4,1.5,0.9c8,13.6,16,27.3,23.9,41c8.4,14.4,16.8,28.8,25.1,43.2c6,10.3,12,20.7,18.1,31
		c0.2,0.4,0.5,0.8,0.8,1.3c2.6-4.4,5.1-8.7,7.6-13.1c7.7-13.2,15.4-26.4,23.1-39.7c8.4-14.4,16.8-28.9,25.2-43.3
		c4-6.8,7.9-13.6,11.9-20.4c0.2-0.4,0.6-0.8,0.9-0.9c3.8-0.1,7.5,0,11.3,0c0,54.8,0,109.4,0,164.2c-3.8,0-7.6,0-11.6,0
		c0-47.1,0-94.2,0-141.3c-0.1,0-0.2-0.1-0.3-0.1c-1.4,2.5-2.9,4.9-4.3,7.4c-13.2,22.6-26.5,45.2-39.7,67.8
		c-6.5,11.2-13.1,22.3-19.6,33.5c-0.7,1.1-1.4,1.7-2.7,1.5c-1.4-0.1-2.9-0.1-4.3,0c-0.9,0-1.5-0.2-2-1.1c-4.9-8.5-10-17.1-14.9-25.6
		c-12.9-22.1-25.8-44.1-38.6-66.2c-3.2-5.4-6.3-10.8-9.5-16.2c-0.2-0.4-0.4-0.7-0.6-1C323.9,39.2,323.7,39.2,323.6,39.2z"/>
	<path class="st0" d="M137.2,110.3c-12.3,0-24.6,0-36.9,0c0-3.2,0-6.3,0-9.5c15.7,0,31.4,0,47.2,0c0,26.5,0,53,0,79.6
		c-3.4,0-6.7,0-10.2,0c0-8.4,0-16.7,0-25.5c-0.9,1-1.6,1.8-2.3,2.5c-10.4,10.7-22.2,19-37,22.3c-18.3,4.1-35.6,1.6-51.7-8
		c-13.4-7.9-23.4-19.1-30.7-32.8c-5.6-10.4-9.1-21.5-10.2-33.3C4.1,91.3,6.3,77.4,11.8,64c4.4-10.6,10.5-20.1,18.8-28.2
		c10.9-10.6,23.8-17.8,39-19.9c15.9-2.2,31.5-0.5,46.1,6.6c10.7,5.2,18.8,13.1,24.9,23.2c0.5,0.9,1.1,1.8,1.6,2.8
		c0.4,0.7,0.8,1.5,1.3,2.4c-3.2,1.9-6.4,3.8-9.7,5.8c-1.4-2.3-2.7-4.5-4.1-6.7c-7.5-11.5-18.2-18.5-31.4-21.8
		c-11.4-2.9-23-3.1-34.4,0.2c-9,2.6-16.9,7.5-23.7,13.9C26.8,54.8,19.8,70.5,17.5,88.5c-2,15.7,0.5,30.7,7.7,44.8
		c8.2,16,20.5,27.6,37.4,34c5.4,2,11,3,16.7,3.4c11.4,0.7,22.1-1.8,32.2-7c5.5-2.8,10.6-6.4,15-10.7c3.5-3.3,6.7-6.8,9.9-10.3
		c0.4-0.4,0.7-1.1,0.7-1.7c0-10,0-20,0-30C137.3,110.8,137.2,110.7,137.2,110.3z"/>
	<path class="st0" d="M971,180.5c0-54.8,0-109.4,0-164.2c10.6,0,21,0,31.6,0c0,54.7,0,109.4,0,164.2
		C992.1,180.5,981.6,180.5,971,180.5z"/>
	<path class="st0" d="M479.6,180.5c0-54.8,0-109.4,0-164.2c35.8,0,71.4,0,107.2,0c0,3.5,0,7,0,10.5c-31.8,0-63.6,0-95.6,0
		c0,0.7,0,1.2,0,1.8c0,20.4,0,40.7,0,61.1c0,1.8,0,1.8,1.8,1.8c26.5,0,53,0,79.5,0c0.6,0,1.3,0,2,0c0,3.4,0,6.6,0,10
		c-27.7,0-55.4,0-83.2,0c0,0.6-0.1,1.1-0.1,1.6c0,21.7,0,43.4,0,65.1c0,1.4,0.4,1.7,1.7,1.7c31.2,0,62.5,0,93.7,0c0.6,0,1.3,0,2.1,0
		c0,3.6,0,7,0,10.6C552.4,180.5,516,180.5,479.6,180.5z"/>
	<path class="st0" d="M304.4,180.6c-4.1,0-8,0-11.9,0c-0.3,0-0.8-0.5-1-0.8c-3.8-9-7.6-18-11.5-27c-3.6-8.5-7.2-16.9-10.7-25.4
		c-0.4-1-1.1-0.9-1.8-0.9c-13.1,0-26.1,0-39.2,0c-12,0-24.1,0-36.1,0c-1.2,0-1.9,0.3-2.4,1.5c-5.7,13.7-11.5,27.3-17.3,41
		c-1.5,3.6-3,7.2-4.6,10.7c-0.2,0.4-0.7,0.8-1,0.9c-3.9,0.1-7.9,0-12.1,0c0.2-0.6,0.3-1.1,0.5-1.5c6.3-14.8,12.6-29.6,18.9-44.4
		c9.6-22.6,19.3-45.3,28.9-67.9c6.9-16.3,13.9-32.7,20.8-49c0.5-1.1,1-1.6,2.2-1.5c2.5,0.1,5,0.1,7.5,0c1,0,1.4,0.4,1.7,1.2
		c4.3,10.3,8.7,20.7,13.1,31c4.4,10.5,8.8,21,13.3,31.5c6.6,15.6,13.2,31.3,19.8,46.9c7.4,17.4,14.7,34.8,22.1,52.3
		C304,179.5,304.2,179.9,304.4,180.6z M265.7,116.6c-11.9-28.6-23.8-57.1-35.8-85.9c-12.2,28.8-24.3,57.3-36.5,85.9
		C217.6,116.6,241.5,116.6,265.7,116.6z"/>
</g>
</svg>
